<?xml version="1.0" encoding="UTF-8"?>
<svg width="285px" height="50px" viewBox="0 0 285 50" version="1.1" xmlns="http://www.w3.org/2000/svg" xmlns:xlink="http://www.w3.org/1999/xlink">
    <title>assets/images/logos/logo_bernerzeitung</title>
    <g id="Element-Logo" stroke="none" stroke-width="1" fill="none" fill-rule="evenodd">
        <g id="1-Element/Logo/Big/BZ-Berner-Zeitung">
            <rect id="Size" x="0" y="0" width="285" height="50"/>
            <g id="Group-23" transform="translate(0.000000, 10.000000)">
                <path d="M276.969094,4.95680365 C279.002188,4.95680365 280.559963,5.5104922 282.413799,6.39537298 L282.413799,6.39537298 L282.519192,6.44191404 L282.519192,13.4236744 L281.54273,13.4236744 L281.5088,13.2882549 C280.835606,10.8305864 280.240481,9.00227318 279.49162,7.81142243 C278.739757,6.62267354 277.883101,6.07198764 276.581452,6.06598234 C274.681976,6.07438976 273.397743,6.81784575 272.523072,8.59931763 C271.655006,10.3876956 271.247246,13.2369096 271.247246,17.359247 C271.245144,21.973118 271.67182,24.8253347 272.514964,26.4854996 C273.363213,28.1357557 274.573881,28.6456055 276.344844,28.654013 C278.250025,28.6513106 279.4688,27.272494 279.472103,26.0011722 L279.472103,26.0011722 L279.472103,19.7685729 L276.311214,19.7685729 L276.311214,18.6638981 L284.367623,18.6638981 L284.367623,19.7685729 L283.054864,19.7685729 L283.054864,27.8853347 L282.977696,27.9405835 C281.596778,28.8765093 279.190154,29.7604893 276.524702,29.7631916 C273.932815,29.7631916 271.583242,28.8816138 269.894552,26.8782461 C268.206162,24.8751787 267.189766,21.7746429 267.189766,17.359247 C267.189766,13.6972158 268.193852,10.602385 269.923077,8.41555549 C271.655006,6.2281254 274.115377,4.95680365 276.969094,4.95680365 Z M237.152162,5.49908213 L237.152162,6.60405711 L235.005268,6.60405711 L235.005268,23.4026794 C235.025085,27.4622614 236.973204,28.6396002 238.761582,28.654013 C241.486486,28.6483079 243.39497,26.61071 243.40638,23.1660707 L243.40638,23.1660707 L243.40638,6.60405711 L240.723813,6.60405711 L240.723813,5.49908213 L246.396419,5.49908213 L246.396419,6.60405711 L244.605639,6.60405711 L244.605639,23.2015019 C244.605639,25.1922585 244.021623,26.8344074 242.976401,27.9805187 C241.930578,29.12663 240.429554,29.7631916 238.647481,29.7631916 L238.647481,29.7631916 C236.19822,29.7631916 234.38432,29.1824792 233.18296,27.9781166 C231.977996,26.7758558 231.421906,24.9799712 231.421906,22.6264946 L231.421906,22.6264946 L231.421906,6.60405711 L229.634128,6.60405711 L229.634128,5.49908213 L237.152162,5.49908213 Z M112.168893,5.49773094 L120.703323,21.9315314 L120.703323,6.60510804 L118.318319,6.60510804 L118.318319,5.49773094 L123.870818,5.49773094 L123.870818,6.60510804 L121.902881,6.60510804 L121.902881,29.2219641 L120.594927,29.2219641 L109.319078,7.72359494 L109.319078,28.1127854 L111.823888,28.1127854 L111.823888,29.2219641 L106.151883,29.2219641 L106.151883,28.1127854 L108.11982,28.1127854 L108.11982,6.60510804 L106.151883,6.60510804 L106.151883,5.49773094 L112.168893,5.49773094 Z M85.234617,5.49761083 L85.234617,13.3576462 L84.2545523,13.3576462 L84.219121,13.2198246 C83.4177139,10.0673429 82.8922502,8.38285664 82.4022178,7.51839388 C81.9040783,6.67164675 81.5506665,6.62180277 80.8186205,6.6052882 L80.8186205,6.6052882 L75.0949703,6.60288608 L75.0949703,16.3669014 L77.2406635,16.3669014 C77.943884,16.3608961 78.4011875,16.1444051 78.8212582,15.4811198 C79.2380259,14.8061242 79.5686176,13.6585116 79.8631775,11.8617262 L79.8631775,11.8617262 L79.8890003,11.7091916 L80.8798746,11.7091916 L80.8798746,22.132889 L79.8890003,22.132889 L79.8631775,21.9815555 C79.5686176,20.1844698 79.2380259,19.0350556 78.8212582,18.3618616 C78.4011875,17.6940724 77.943884,17.480584 77.2406635,17.4745787 L77.2406635,17.4745787 L75.0949703,17.4745787 L75.0949703,28.1129656 L80.1625417,28.1129656 C81.2020589,28.1015555 81.7617527,27.9292034 82.3908078,26.8770751 C83.0114554,25.8129361 83.6101837,23.8440989 84.4881584,20.3541195 L84.4881584,20.3541195 L84.5226888,20.2156974 L85.5021531,20.2156974 L85.5021531,29.221844 L69.7235308,29.221844 L69.7235308,28.1129656 L71.5134101,28.1129656 L71.5134101,6.6052882 L69.7235308,6.6052882 L69.7235308,5.49761083 L85.234617,5.49761083 Z M140.984778,5.4990521 L140.984778,13.3548837 L140.005314,13.3548837 L139.969583,13.2212658 C139.167875,10.0687842 138.643913,8.38279659 138.156883,7.51953488 C137.65424,6.67158669 137.302329,6.62174271 136.569382,6.60702973 L136.569382,6.60702973 L130.847834,6.60402708 L130.847834,16.3686429 L132.992026,16.3686429 C133.694646,16.360836 134.15255,16.1461466 134.573221,15.4783574 C134.988788,14.8075655 135.319079,13.6584516 135.613939,11.8616662 L135.613939,11.8616662 L135.639162,11.7109332 L136.630336,11.7109332 L136.630336,22.132829 L135.639162,22.132829 L135.613939,21.9814954 C135.319079,20.18471 134.988788,19.0349956 134.573221,18.3618016 C134.15255,17.6940124 133.694646,17.4817251 132.992026,17.4730174 L132.992026,17.4730174 L130.847834,17.4730174 L130.847834,28.1147071 L135.914204,28.1147071 C136.95222,28.1029968 137.511914,27.9303444 138.14157,26.8785163 C138.763719,25.8128761 139.362747,23.8452399 140.23892,20.3540595 L140.23892,20.3540595 L140.27285,20.2171387 L141.254116,20.2171387 L141.254116,29.2217839 L125.473692,29.2217839 L125.473692,28.1147071 L127.260869,28.1147071 L127.260869,6.60702973 L125.473692,6.60702973 L125.473692,5.4990521 L140.984778,5.4990521 Z M152.550353,5.49625964 C155.08489,5.49625964 156.832131,6.18296556 157.939208,7.26812305 C159.047786,8.35147895 159.500286,9.81256815 159.500286,11.3177963 C159.511696,14.6099011 157.230883,16.9351528 153.075817,17.3137869 L153.075817,17.3137869 L159.954887,28.1158181 L161.498549,28.1158181 L161.498549,29.2207931 L156.476017,29.2207931 L149.065478,17.5945346 L149.065478,28.1158181 L151.330977,28.1158181 L151.330977,29.2207931 L143.691637,29.2207931 L143.691637,28.1158181 L145.478513,28.1158181 L145.478513,6.60513806 L143.691637,6.60513806 L143.691637,5.49625964 Z M62.7247454,1.05242861 C65.0713159,2.31534295 66.4183044,4.54691198 66.4183044,6.98986753 C66.4183044,10.6524993 63.9170974,13.0122814 59.2602885,13.6416367 C64.8791463,14.1058463 67.9208301,16.9691728 67.9208301,21.0960141 C67.9208301,23.9596409 66.5738416,26.3158198 64.0333,27.7880188 C61.9545658,29.0100971 59.1050515,29.2205829 55.3730586,29.2205829 L47.095655,29.2205829 L47.095655,28.1672535 L49.4437268,28.1672535 L49.4437268,1.05242861 L47.095655,1.05242861 L47.095655,-3.00333556e-14 L55.2175213,-3.00333556e-14 C58.2225729,-3.00333556e-14 60.6829438,-3.00333556e-14 62.7247454,1.05242861 Z M254.219521,5.49908213 L262.755453,21.9301802 L262.755453,6.60405711 L260.371049,6.60405711 L260.371049,5.49908213 L265.922047,5.49908213 L265.922047,6.60405711 L263.95321,6.60405711 L263.95321,29.2206129 L262.64976,29.2206129 L251.372109,7.72194348 L251.372109,28.1147371 L253.875117,28.1147371 L253.875117,29.2206129 L248.204914,29.2206129 L248.204914,28.1147371 L250.173451,28.1147371 L250.173451,6.60405711 L248.204914,6.60405711 L248.204914,5.49908213 L254.219521,5.49908213 Z M96.7972493,5.49928254 C99.3314854,5.49628967 101.079027,6.1853977 102.186705,7.26665175 C103.294382,8.35150898 103.74568,9.81560082 103.74568,11.3178263 C103.758291,14.6096309 101.477779,16.9363839 97.322713,17.3138169 L97.322713,17.3138169 L104.201482,28.114647 L105.743943,28.114647 L105.743943,29.2208231 L100.722913,29.2208231 L93.3123744,17.5930633 L93.3123744,28.114647 L95.5778734,28.114647 L95.5778734,29.2208231 L87.9370315,29.2208231 L87.9370315,28.114647 L89.7254095,28.114647 L89.7254095,6.60396703 L87.9370315,6.60396703 L87.9370315,5.49928254 Z M228.452195,5.4990521 L228.452195,13.2882249 L227.461021,13.2882249 L227.432496,13.1401943 C226.822958,9.97329997 226.432613,8.30172505 226.045272,7.46158375 C225.639013,6.63405358 225.384689,6.62834854 224.721404,6.60402708 L224.721404,6.60402708 L222.961551,6.60402708 L222.961551,28.1147071 L225.200326,28.1147071 L225.200326,29.2193818 L217.143017,29.2193818 L217.143017,28.1147071 L219.381492,28.1147071 L219.381492,6.60402708 L217.621939,6.60402708 C216.961356,6.62834854 216.70433,6.63405358 216.300173,7.46158375 C215.910429,8.30172505 215.519785,9.97329997 214.907544,13.1401943 L214.907544,13.1401943 L214.881722,13.2882249 L213.89385,13.2882249 L213.89385,5.4990521 L228.452195,5.4990521 Z M212.321362,5.4990521 L212.321362,6.60402708 L210.530282,6.60402708 L210.530282,28.1147071 L212.321362,28.1147071 L212.321362,29.2193818 L205.158843,29.2193818 L205.158843,28.1147071 L206.947521,28.1147071 L206.947521,6.60402708 L205.158843,6.60402708 L205.158843,5.4990521 L212.321362,5.4990521 Z M185.560069,-3.00264939e-05 L171.852975,28.1254866 L179.244597,28.1254866 C182.785922,28.1254866 182.902424,26.6532876 184.59742,18.441642 L185.442966,18.441642 L185.442966,29.219652 L166.886293,29.219652 L180.63092,1.05239859 L173.54767,1.05239859 C170.584356,1.05239859 170.15858,2.39908684 168.889961,9.17966971 L167.965745,9.17966971 L167.965745,-3.00264939e-05 L185.560069,-3.00264939e-05 Z M202.422228,5.4990521 L202.422228,13.355184 L201.445766,13.355184 L201.410936,13.2179629 C200.605925,10.0657816 200.081062,8.38429791 199.594032,7.51953488 C199.095893,6.67158669 198.742781,6.62294377 198.008634,6.60402708 L198.008634,6.60402708 L192.286785,6.60402708 L192.286785,16.3686429 L194.430977,16.3686429 C195.134197,16.359635 195.589999,16.1461466 196.014274,15.4783574 C196.430441,14.8075655 196.760732,13.6584516 197.054091,11.8628672 L197.054091,11.8628672 L197.077212,11.7079305 L198.073791,11.7079305 L198.073791,22.13403 L197.077212,22.13403 L197.054091,21.9814954 C196.760732,20.1832087 196.430441,19.0340948 196.014274,18.3633029 C195.589999,17.6955137 195.134197,17.4817251 194.430977,17.4730174 L194.430977,17.4730174 L192.286785,17.4730174 L192.286785,28.1147071 L197.352855,28.1147071 C198.38967,28.1029968 198.950865,27.9306447 199.57992,26.8755137 C200.201168,25.8128761 200.801398,23.8425375 201.679372,20.3552605 L201.679372,20.3552605 L201.716305,20.2171387 L202.696069,20.2171387 L202.696069,29.2193818 L186.916246,29.2193818 L186.916246,28.1147071 L188.701321,28.1147071 L188.701321,6.60402708 L186.916246,6.60402708 L186.916246,5.4990521 L202.422228,5.4990521 Z M54.8701148,14.3589697 L53.5615602,14.3589697 L53.5615602,28.1672535 L55.7961319,28.1672535 C61.0303503,28.1672535 63.6489608,26.6533176 63.6489608,20.9675007 C63.6489608,15.8314689 60.6445099,14.3589697 54.8701148,14.3589697 Z M151.59431,6.60513806 L149.065478,6.60513806 L149.065478,16.4355119 L150.640368,16.4355119 C154.116535,16.4120913 155.711242,14.5924857 155.738266,11.3177963 C155.717248,8.99374566 154.756099,6.61414601 151.59431,6.60513806 L151.59431,6.60513806 Z M95.8430074,6.60396703 L93.3123744,6.60396703 L93.3123744,16.4355419 L94.890567,16.4355419 C98.363131,16.4121213 99.961141,14.5925157 99.9851622,11.3178263 C99.9665458,8.99377568 99.001194,6.61417604 95.8430074,6.60396703 L95.8430074,6.60396703 Z M55.0637857,1.05242861 L53.5615602,1.05242861 L53.5615602,13.3065411 L54.7950486,13.3065411 C59.7617309,13.3065411 62.2251045,11.2422196 62.2251045,7.02980277 C62.2251045,2.23006771 59.9536002,1.05242861 55.0637857,1.05242861 Z" id="Combined-Shape" fill="#1D1D1B"/>
                <path d="M14.3505623,13.5872888 C17.0076067,12.7084133 19.4013188,10.6582043 19.3956138,6.86495732 C19.3956138,4.87299971 18.5737886,3.13146306 17.1217074,1.91959376 C15.6693259,0.69901678 13.6044039,0 11.1284192,0 L0,0 L0,1.61932882 L2.25949367,1.61932882 L2.25949367,27.6015543 L0,27.6015543 L0,29.2205829 L9.5859582,29.2205829 C13.5347424,29.2205829 16.4509155,28.3251928 18.3957315,26.8028496 C20.3438505,25.2808066 21.2821784,23.1264057 21.276514,20.7483073 C21.2881837,17.15864 18.7662585,14.4787754 14.3505623,13.5872888 L14.3505623,13.5872888 Z M7.04001178,1.61932882 L10.1513571,1.61932882 C11.5541949,1.62503385 12.5690904,2.02048278 13.2741125,2.87203415 C13.9803356,3.72929055 14.3919988,5.11771563 14.3893097,7.15381219 C14.3893097,9.41390639 13.8806476,10.8804004 12.9762496,11.7847984 C12.0736532,12.6918987 10.7050456,13.1002591 8.82989108,13.1032617 L7.04001178,13.1032617 L7.04001178,1.61932882 Z M14.1382749,26.1065352 C12.9678422,27.1391463 11.1140065,27.604557 8.45395938,27.6015687 L7.04001178,27.6015687 L7.04001178,14.7177863 L10.0372564,14.7177863 C12.1433147,14.7177863 13.5857875,15.1462644 14.5027966,16.0707801 C15.421307,16.9961966 15.8954254,18.5026258 15.8954254,20.8308802 C15.892723,23.4230674 15.3075066,25.077227 14.1382749,26.1065352 L14.1382749,26.1065352 Z M37.9979276,18.2522049 C37.1547836,22.71204 36.4972034,25.1084545 35.8023903,26.3158198 C35.0958669,27.4934589 34.5277657,27.5763321 33.3387165,27.6015543 L26.9283603,27.6015543 L39.809426,0.0030026494 L22.1721637,0.0030026494 L22.1721637,9.85649691 L23.650368,9.85649691 L23.705917,9.56734177 C24.4148425,5.83234619 25.0003591,3.7905446 25.665446,2.76093612 C26.3299323,1.7616544 26.9667942,1.63914631 28.2525287,1.61932882 L33.7990227,1.61932882 L21.5686311,28.1273182 L21.5686311,29.2205829 L39.5316809,29.2205829 L39.5316809,17.9648513 L38.0507742,17.9648513 L37.9979276,18.2522049 Z" id="Fill-21" fill="#800000"/>
            </g>
        </g>
    </g>
</svg>