<?xml version="1.0" encoding="utf-8"?>
<!-- Generator: Adobe Illustrator 22.0.1, SVG Export Plug-In . SVG Version: 6.00 Build 0)  -->
<svg version="1.1" id="Ebene_1" xmlns="http://www.w3.org/2000/svg" xmlns:xlink="http://www.w3.org/1999/xlink" x="0px" y="0px"
	 viewBox="0 0 372 372" enable-background="new 0 0 372 372" xml:space="preserve">
<g id="Ebene_2_1_">
	<g id="cut">
		<rect y="0" fill="none" width="372" height="372"/>
	</g>
	<g id="fläche_Kopie">
		<polygon fill="#E2D4B3" points="371.3,266 187.7,372 0.6,264 184.2,158 		"/>
	</g>
	<g id="icons">
		<path fill="#C9B88D" d="M145.2,214c-0.1-0.1-0.3-0.1-0.5-0.2l-0.4-0.2l0,0c-1.3-0.5-2.6-0.9-3.9-1.2l0,0h-0.2l-0.7-0.1l-0.6-0.1
			l-0.7-0.1l-0.6-0.1h-0.7h-0.6h-0.8h-0.1c-3.5,0-7,0.8-10.1,2.4l-68.9,39.7c-2.8,1.6-4.2,3.7-4.2,5.8l0,0c0,0,0,0,0,0.1
			s0,0.3,0,0.4v0.4c0,0.1,0.1,0.3,0.1,0.4l0.1,0.4l0.2,0.4c0,0.1,0.1,0.2,0.2,0.4l0.2,0.4c0,0,0,0.1,0.1,0.1l0,0
			c0.5,0.9,1.2,1.6,2,2.2l0,0l0.3,0.2l0.3,0.3c0.3,0.2,0.6,0.4,0.9,0.6l1.2,0.7l3,1.7l3,1.7l3,1.7l3,1.7l3,1.7l3,1.7l2.9,1.7
			l2.9,1.7l2.9,1.7l3,1.7l3,1.7l3,1.7l1.2,0.7c0.3,0.2,0.7,0.4,1,0.5l0.4,0.2l0.4,0.2l0,0c1.3,0.5,2.6,0.9,3.9,1.2l0,0h0.2l0.7,0.1
			l0.6,0.1l0.7,0.1l0.6,0h0.7h0.6h0.9c3.5,0,7-0.8,10.1-2.4l59.2-34.2c0,0,11.7-15.8,10.9-16.5l0,0l-0.3-0.2l-0.4-0.3
			c-0.3-0.2-0.6-0.4-0.9-0.6l-1.2-0.7l-2.9-1.7l-3-1.7l-2.9-1.7l-2.9-1.7l-3-1.7l-2.9-1.7l-3-1.7l-2.9-1.7l-2.9-1.7l-2.9-1.7l-3-1.7
			l-2.9-1.7l-1.2-0.7C145.9,214.4,145.5,214.2,145.2,214z"/>
		<polygon fill="#C9B88D" points="203.2,217 152.3,246.6 203.2,276.2 254.2,246.6 		"/>
		<path fill="#FFFFFF" d="M205.2,184.4l-16.1-9.7l0,0l-0.3-0.2h-0.1l0,0c-2-1.1-4.7-0.9-7.6,0.8l-73.4,42.2c-3.2,2-5.8,4.7-7.7,8
			l0,0l-0.1,0.1c-0.1,0.2-0.3,0.5-0.4,0.7s-0.2,0.4-0.3,0.6s-0.2,0.5-0.3,0.7s-0.2,0.4-0.3,0.6s-0.2,0.4-0.2,0.6l61.5,35.8l25-14.4
			c3.2-2,5.8-4.7,7.6-8l0,0l0.1-0.1l0.4-0.7l0.3-0.6l0.4-0.7l0.3-0.6c0.1-0.2,0.2-0.5,0.3-0.7l0.2-0.6c0.1-0.2,0.2-0.5,0.3-0.7
			l0.1-0.2l0,0c0.5-1.4,0.8-2.8,1-4.2l0,0c0-0.2,0-0.3,0.1-0.5s0-0.4,0-0.5c0-0.4,0.1-0.8,0.1-1.2v-39.5L205.2,184.4z"/>
		<path fill="#E0E5E7" d="M114.9,290.3l44.9-25.8l-61.5-35.8c0,0,0,0.1,0,0.1c-0.1,0.2-0.2,0.4-0.2,0.6s-0.2,0.5-0.3,0.7
			s-0.1,0.2-0.1,0.2l0,0c-0.5,1.4-0.8,2.8-1,4.2l0,0c0,0.2,0,0.3,0,0.5l-0.1,0.5c0,0.4,0,0.8,0,1.2V283c0,0.4,0,0.8,0,1.2l0.1,0.5
			c0,0.1,0,0.3,0,0.4l0,0c0.2,1.1,0.5,2.1,1,3l0,0c0,0,0.1,0.1,0.1,0.1l0.3,0.4l0.2,0.3l0.3,0.4l0.3,0.3c0.1,0.1,0.2,0.2,0.3,0.3
			l0.3,0.2l0.4,0.2h0.1l0,0l0.2,0.1l16.2,9.8L114.9,290.3z"/>
		<path fill="#FFFFFF" d="M197.5,185.7l-73.4,42.1C118,231.4,113,240,113,247.2v46.2c0,7.1,5,10.1,11.1,6.6l73.4-42.1
			c6.1-3.5,11.1-12.2,11.1-19.3v-46.2C208.6,185.1,203.7,182.2,197.5,185.7z"/>
		<polygon fill="#891725" points="208.6,210.5 208.6,200.9 113.1,256.1 113.1,265.7 		"/>
		<path fill="#CC1236" d="M113.1,270.5v23c0,7.1,4.9,10.1,11,6.6l73.6-42.5c6.1-3.5,11-12.1,11-19.2v-23L113.1,270.5z"/>
		<path fill="#CC1236" d="M208.6,196.1v-3.8c0-7.1-4.9-10.1-11-6.6L124,228.2c-6,3.5-11,12.1-11,19.2v3.8L208.6,196.1z"/>
		<polygon fill="#CC1236" points="250.1,217 199.1,246.6 250.1,276.2 301,246.6 		"/>
		<polygon fill="#FFFFFF" points="250.1,276.2 199.1,246.6 199.1,269.6 250.1,299.2 301,269.6 301,246.6 		"/>
		<polygon fill="#891725" points="250.1,280.2 199.1,250.6 199.1,273.6 250.1,303.2 301,273.6 301,250.6 		"/>
	</g>
</g>
</svg>
