<svg xmlns="http://www.w3.org/2000/svg" viewBox="0 0 155.87 21.71"><path fill="#fff" d="M.14.19h21.28v21.36H.14V.19z"/><path d="M0 0h21.57v21.71H0V0zm4.27 4.3h13.06v13.12H4.27V4.3z" fill="#dc0528" fill-rule="evenodd"/><path d="M9.03 5.18h7.4l-3.77 5.69 3.77 5.74h-7.4l-3.87-5.7 3.87-5.73zM94.21 0h.7v21.71h-.7zM32.75 5.45h4a2.67 2.67 0 013 2.71 2.42 2.42 0 01-2 2.49A2.41 2.41 0 0140 13.31c0 2.76-2.72 3-3.36 3h-3.89zm2.46 4.42h.62a1.32 1.32 0 001.51-1.34 1.31 1.31 0 00-1.46-1.31h-.67zm0 4.61h.72a1.4 1.4 0 001.63-1.4 1.27 1.27 0 00-1.37-1.43h-1zM47.42 5.45h6.27v1.9h-3.81v2.43h3.63v1.9h-3.63v2.74h4v1.9h-6.46zM61.8 5.45h2.55v4.48l2.68-4.48h2.86l-3.36 5.09 3.63 5.78h-3l-2.75-5v5h-2.6V5.45zM76.57 5.45h4.05a2.67 2.67 0 013 2.71 2.42 2.42 0 01-2 2.49 2.41 2.41 0 012.18 2.63c0 2.76-2.72 3-3.36 3h-3.87V5.45zM79 9.87h.62a1.32 1.32 0 001.51-1.34 1.31 1.31 0 00-1.43-1.31H79v2.65zm0 4.61h.72a1.4 1.4 0 001.63-1.4A1.27 1.27 0 0080 11.65h-1v2.83zM105.66 5.45h4a2.67 2.67 0 013 2.71 2.42 2.42 0 01-2 2.49 2.41 2.41 0 012.18 2.63c0 2.76-2.72 3-3.36 3h-3.91V5.45zm2.46 4.42h.62a1.32 1.32 0 001.51-1.34 1.31 1.31 0 00-1.46-1.31h-.67v2.65zm0 4.61h.72a1.4 1.4 0 001.63-1.4 1.27 1.27 0 00-1.37-1.43h-1v2.83zM126.65 7.91a4 4 0 00-2.21-.62c-1.71 0-2.8 1.38-2.8 3.58s1.23 3.55 2.85 3.55a4.72 4.72 0 002.23-.57l.09 2.27a8.68 8.68 0 01-2.72.39c-3 0-5.06-2.22-5.06-5.66 0-4 2.68-5.57 4.89-5.57a6.71 6.71 0 012.86.53zM134.57 5.45h4a2.67 2.67 0 013 2.71 2.42 2.42 0 01-2 2.49 2.41 2.41 0 012.18 2.63c0 2.76-2.72 3-3.36 3h-3.9V5.45zM137 9.87h.62a1.32 1.32 0 001.51-1.34 1.31 1.31 0 00-1.46-1.31H137v2.65zm0 4.61h.72a1.4 1.4 0 001.63-1.4 1.27 1.27 0 00-1.35-1.43h-1v2.83zM149.41 5.45h6.27v1.9h-3.81v2.43h3.62v1.9h-3.62v2.74h4v1.9h-6.46z"/></svg>