<?xml version="1.0" encoding="utf-8"?>
<!-- Generator: Adobe Illustrator 22.0.1, SVG Export Plug-In . SVG Version: 6.00 Build 0)  -->
<svg version="1.1" id="Ebene_1" xmlns="http://www.w3.org/2000/svg" xmlns:xlink="http://www.w3.org/1999/xlink" x="0px" y="0px"
	 viewBox="0 0 372 372" enable-background="new 0 0 372 372" xml:space="preserve">
<g id="Ebene_2_1_">
	<g id="cut">
		<rect y="0" fill="none" width="372" height="372"/>
	</g>
	<g id="fläche">
		<polygon fill="#E2D4B3" points="184.3,157 122.9,192.4 122.9,192.4 33.6,244 33.6,244 0.7,263 187.7,371 371.3,265 		"/>
	</g>
	<g id="icons">
		<polygon fill="#C9B88D" points="175.9,222.6 173.8,221.3 123.3,192.2 34,243.7 84.5,272.9 153.1,273.2 208.4,241.3 		"/>
		<polygon fill="#FFFFFF" points="208.4,86.4 119.1,137.9 119.1,252.9 150.8,271.9 169.9,283.4 174.2,280.9 177.9,259 208.4,241.4 
			208.4,203.9 208.4,201.4 208.4,112.9 225.2,96.5 		"/>
		<polygon fill="#E0E5E7" points="119.1,137.9 135.9,148 135.9,263 119.1,252.9 		"/>
		<polygon fill="#CC1236" points="225.2,96.5 135.9,148 135.9,258 174.2,235.9 174.2,280.9 225.2,251.5 		"/>
		<polygon fill="#891725" points="135.9,263 169.9,243.4 169.9,283.4 		"/>
		<polygon fill="#FFFFFF" points="180.5,132.3 155,167.6 155,175.1 180.5,139.8 206,147 206,139.5 		"/>
		<polygon fill="#FFFFFF" points="180.5,144.8 155,180.1 155,207 174.2,195.9 174.2,175.9 186.9,168.6 186.9,188.6 206,177.5 
			206,152 		"/>
	</g>
</g>
</svg>
