<?xml version="1.0" encoding="utf-8"?>
<!-- Generator: Adobe Illustrator 22.0.1, SVG Export Plug-In . SVG Version: 6.00 Build 0)  -->
<svg version="1.1" id="Ebene_1" xmlns="http://www.w3.org/2000/svg" xmlns:xlink="http://www.w3.org/1999/xlink" x="0px" y="0px"
	 viewBox="0 0 372 372" enable-background="new 0 0 372 372" xml:space="preserve">
<g id="Ebene_2_1_">
	<g id="cut">
		<rect y="0" fill="none" width="372" height="372"/>
	</g>
	<g id="fläche_Kopie">
		<polygon fill="#E2D4B3" points="371.3,266 187.7,372 0.6,264 184.2,158 		"/>
	</g>
	<g id="icons">
		<polygon fill="#C9B88D" points="126.2,209.3 92.2,229 126.8,249 161.4,269 195.4,249.3 160.8,229.3 		"/>
		<polygon fill="#C9B88D" points="77.9,277.2 112.6,297.2 146.6,277.6 111.9,257.6 		"/>
		<polygon fill="#C9B88D" points="175,181.1 159.1,172.3 125.1,191.9 141,200.8 210.3,240.8 244.3,221.1 		"/>
		<polygon fill="#FFFFFF" points="161.4,269.2 161.4,229.2 195.4,209.5 195.4,249.5 		"/>
		<polygon fill="#FFFFFF" points="195.4,209.5 161.4,229.2 161.4,189.2 195.4,169.5 		"/>
		<polyline fill="#FFFFFF" points="112.5,257.4 129.5,267.6 129.5,307.6 112.5,297.4 112.5,257.4 146.5,237.7 146.5,277.7 		"/>
		<polyline fill="#FFFFFF" points="244.2,101.3 244.2,141.3 210.2,160.9 210.2,120.9 		"/>
		<polygon fill="#FFFFFF" points="210.2,240.9 210.2,160.9 244.2,141.3 244.2,221.3 		"/>
		<polygon fill="#FFFFFF" points="146.5,237.7 163.5,248 157.3,265 142.1,272.7 		"/>
		<polygon fill="#FFFFFF" points="178.4,279.4 162.6,270 165.8,251 186,252.6 		"/>
		<polygon fill="#FFFFFF" points="195.4,169.5 212.4,179.8 196.3,203.5 184.1,184.6 		"/>
		<polygon fill="#FFFFFF" points="227.2,251.2 211.2,241.6 212.3,236.7 232.1,225.9 		"/>
		<polygon fill="#FFFFFF" points="258.9,112.6 241.9,102.3 241.9,126.8 		"/>
		<polygon fill="#E0E5E7" points="112.5,257.4 129.5,267.6 129.5,307.6 112.5,297.5 		"/>
		<polygon fill="#E0E5E7" points="161.4,189.2 161.2,246.6 163.5,248 161.2,249.3 161.1,269.2 178.4,279.4 178.4,199.4 		"/>
		<polygon fill="#E0E5E7" points="210.2,120.9 210.2,178.5 212.4,179.8 210.2,181.5 210.2,240.9 227.2,251.2 227.2,131.2 		"/>
		<polyline fill="#891725" points="178.4,279.4 178.4,239.4 212.4,219.8 212.4,259.8 		"/>
		<polygon fill="#CC1236" points="212.4,219.8 178.4,239.4 178.4,199.4 212.4,179.8 		"/>
		<polyline fill="#CC1236" points="129.5,307.6 129.5,267.6 163.5,248 163.5,288 		"/>
		<polyline fill="#CC1236" points="261.2,111.6 261.2,151.6 227.2,171.2 227.2,131.2 		"/>
		<polyline fill="#891725" points="227.2,251.2 227.2,171.2 261.2,151.6 261.2,231.6 		"/>
	</g>
</g>
</svg>
